<svg width="19" height="18" viewBox="0 0 19 18" fill="none" xmlns="http://www.w3.org/2000/svg">
<path d="M16.375 4.5H14.125C14.125 3.30653 13.6509 2.16193 12.807 1.31802C11.9631 0.474106 10.8185 0 9.625 0C8.43153 0 7.28693 0.474106 6.44302 1.31802C5.59911 2.16193 5.125 3.30653 5.125 4.5H2.875C2.27826 4.5 1.70597 4.73705 1.28401 5.15901C0.862053 5.58097 0.625 6.15326 0.625 6.75L0.625 14.25C0.626191 15.2442 1.02166 16.1973 1.72466 16.9003C2.42767 17.6033 3.3808 17.9988 4.375 18H14.875C15.8692 17.9988 16.8223 17.6033 17.5253 16.9003C18.2283 16.1973 18.6238 15.2442 18.625 14.25V6.75C18.625 6.15326 18.3879 5.58097 17.966 5.15901C17.544 4.73705 16.9717 4.5 16.375 4.5ZM9.625 1.5C10.4206 1.5 11.1837 1.81607 11.7463 2.37868C12.3089 2.94129 12.625 3.70435 12.625 4.5H6.625C6.625 3.70435 6.94107 2.94129 7.50368 2.37868C8.06629 1.81607 8.82935 1.5 9.625 1.5ZM17.125 14.25C17.125 14.8467 16.8879 15.419 16.466 15.841C16.044 16.2629 15.4717 16.5 14.875 16.5H4.375C3.77826 16.5 3.20597 16.2629 2.78401 15.841C2.36205 15.419 2.125 14.8467 2.125 14.25V6.75C2.125 6.55109 2.20402 6.36032 2.34467 6.21967C2.48532 6.07902 2.67609 6 2.875 6H5.125V7.5C5.125 7.69891 5.20402 7.88968 5.34467 8.03033C5.48532 8.17098 5.67609 8.25 5.875 8.25C6.07391 8.25 6.26468 8.17098 6.40533 8.03033C6.54598 7.88968 6.625 7.69891 6.625 7.5V6H12.625V7.5C12.625 7.69891 12.704 7.88968 12.8447 8.03033C12.9853 8.17098 13.1761 8.25 13.375 8.25C13.5739 8.25 13.7647 8.17098 13.9053 8.03033C14.046 7.88968 14.125 7.69891 14.125 7.5V6H16.375C16.5739 6 16.7647 6.07902 16.9053 6.21967C17.046 6.36032 17.125 6.55109 17.125 6.75V14.25Z" fill="#ABABAB"/>
</svg>
