<svg width="19" height="18" viewBox="0 0 19 18" fill="none" xmlns="http://www.w3.org/2000/svg">
<path d="M18.625 6.75C18.625 6.15326 18.3879 5.58097 17.966 5.15901C17.544 4.73705 16.9717 4.5 16.375 4.5H14.125C14.125 3.30653 13.6509 2.16193 12.807 1.31802C11.9631 0.474106 10.8185 0 9.625 0C8.43153 0 7.28693 0.474106 6.44302 1.31802C5.59911 2.16193 5.125 3.30653 5.125 4.5H2.875C2.27826 4.5 1.70597 4.73705 1.28401 5.15901C0.862053 5.58097 0.625 6.15326 0.625 6.75L0.625 14.25C0.626191 15.2442 1.02166 16.1973 1.72466 16.9003C2.42767 17.6033 3.3808 17.9988 4.375 18H14.875C15.8692 17.9988 16.8223 17.6033 17.5253 16.9003C18.2283 16.1973 18.6238 15.2442 18.625 14.25V6.75ZM6.625 4.5C6.625 3.70435 6.94107 2.94129 7.50368 2.37868C8.06629 1.81607 8.82935 1.5 9.625 1.5C10.4206 1.5 11.1837 1.81607 11.7463 2.37868C12.3089 2.94129 12.625 3.70435 12.625 4.5H6.625Z" fill="#007AFF"/>
</svg>
