<svg width="19" height="18" viewBox="0 0 19 18" fill="none" xmlns="http://www.w3.org/2000/svg">
<path d="M13.5 0.687744C12.6554 0.70088 11.8293 0.936634 11.105 1.3712C10.3808 1.80576 9.78399 2.42375 9.37497 3.16274C8.96595 2.42375 8.36917 1.80576 7.6449 1.3712C6.92062 0.936634 6.09451 0.70088 5.24997 0.687744C3.90367 0.746237 2.63525 1.33518 1.72181 2.32592C0.808363 3.31665 0.324156 4.62864 0.374969 5.97524C0.374969 11.0565 8.59197 16.9252 8.94147 17.1742L9.37497 17.481L9.80847 17.1742C10.158 16.9267 18.375 11.0565 18.375 5.97524C18.4258 4.62864 17.9416 3.31665 17.0281 2.32592C16.1147 1.33518 14.8463 0.746237 13.5 0.687744ZM9.37497 15.6345C6.93522 13.812 1.87497 9.33449 1.87497 5.97524C1.8237 5.02628 2.14974 4.09554 2.78199 3.38602C3.41424 2.6765 4.30139 2.24576 5.24997 2.18774C6.19854 2.24576 7.0857 2.6765 7.71795 3.38602C8.35019 4.09554 8.67624 5.02628 8.62497 5.97524H10.125C10.0737 5.02628 10.3997 4.09554 11.032 3.38602C11.6642 2.6765 12.5514 2.24576 13.5 2.18774C14.4485 2.24576 15.3357 2.6765 15.9679 3.38602C16.6002 4.09554 16.9262 5.02628 16.875 5.97524C16.875 9.33599 11.8147 13.812 9.37497 15.6345Z" fill="#ABABAB"/>
</svg>
