<svg width="19" height="18" viewBox="0 0 19 18" fill="none" xmlns="http://www.w3.org/2000/svg">
<path d="M18.4528 7.86525L12.0793 0.974999C11.7984 0.671085 11.4576 0.428574 11.0785 0.262713C10.6993 0.0968526 10.29 0.0112305 9.87613 0.0112305C9.46229 0.0112305 9.05292 0.0968526 8.67377 0.262713C8.29462 0.428574 7.95389 0.671085 7.673 0.974999L1.31075 7.863C1.03153 8.14411 0.874883 8.52428 0.875 8.9205V15.75C0.875 16.3467 1.11205 16.919 1.53401 17.341C1.95597 17.7629 2.52826 18 3.125 18H6.125V13.5C6.12751 12.8263 6.31199 12.1659 6.65894 11.5884C7.00588 11.011 7.5024 10.538 8.096 10.2195C8.1335 10.1985 8.171 10.1775 8.21 10.1572C8.35003 10.0875 8.49432 10.0266 8.642 9.975C8.74325 9.93825 8.846 9.90675 8.95175 9.879C9.0575 9.85125 9.185 9.8265 9.305 9.804C9.371 9.7935 9.4325 9.771 9.5 9.76425C9.6155 9.753 9.725 9.75075 9.84125 9.75C9.85325 9.75 9.86375 9.74625 9.875 9.74625H9.8885C10.1207 9.74804 10.3522 9.77139 10.58 9.816C10.6055 9.82125 10.631 9.8235 10.655 9.82875C10.8688 9.87543 11.0781 9.94068 11.2805 10.0237C11.309 10.035 11.3375 10.0455 11.366 10.0582C11.5597 10.1423 11.7458 10.2427 11.9225 10.3582L12.0057 10.4137C12.1772 10.5329 12.3385 10.6662 12.488 10.812C12.512 10.8352 12.5345 10.8585 12.5577 10.8825C12.7042 11.0329 12.8381 11.1949 12.9583 11.367L13.0093 11.442C13.1273 11.6212 13.2299 11.8102 13.316 12.0067C13.3257 12.0307 13.334 12.0547 13.3438 12.0817C13.4294 12.289 13.4962 12.5037 13.5433 12.723C13.5433 12.7395 13.5485 12.7567 13.5515 12.7732C13.5997 13.0125 13.6243 13.2559 13.625 13.5V18H16.625C17.2217 18 17.794 17.7629 18.216 17.341C18.6379 16.919 18.875 16.3467 18.875 15.75V8.90925C18.8752 8.51962 18.7238 8.1452 18.4528 7.86525Z" fill="#007AFF"/>
</svg>
