<svg width="19" height="18" viewBox="0 0 19 18" fill="none" xmlns="http://www.w3.org/2000/svg">
<path d="M18.2158 6.80183L12.527 1.11233C11.8229 0.410325 10.8693 0.0161133 9.87501 0.0161133C8.88076 0.0161133 7.92708 0.410325 7.22301 1.11233L1.53426 6.80183C1.32458 7.01017 1.15834 7.25806 1.04517 7.53112C0.932005 7.80419 0.874167 8.097 0.875009 8.39258V15.7553C0.875009 16.3521 1.11206 16.9244 1.53402 17.3463C1.95598 17.7683 2.52827 18.0053 3.12501 18.0053H16.625C17.2217 18.0053 17.794 17.7683 18.216 17.3463C18.638 16.9244 18.875 16.3521 18.875 15.7553V8.39258C18.8758 8.097 18.818 7.80419 18.7048 7.53112C18.5917 7.25806 18.4254 7.01017 18.2158 6.80183ZM12.125 16.5053H7.62501V13.5548C7.62501 12.9581 7.86206 12.3858 8.28402 11.9638C8.70598 11.5419 9.27827 11.3048 9.87501 11.3048C10.4717 11.3048 11.044 11.5419 11.466 11.9638C11.888 12.3858 12.125 12.9581 12.125 13.5548V16.5053ZM17.375 15.7553C17.375 15.9542 17.296 16.145 17.1553 16.2857C17.0147 16.4263 16.8239 16.5053 16.625 16.5053H13.625V13.5548C13.625 12.5603 13.2299 11.6064 12.5267 10.9032C11.8234 10.1999 10.8696 9.80483 9.87501 9.80483C8.88045 9.80483 7.92662 10.1999 7.22336 10.9032C6.5201 11.6064 6.12501 12.5603 6.12501 13.5548V16.5053H3.12501C2.9261 16.5053 2.73533 16.4263 2.59468 16.2857C2.45403 16.145 2.37501 15.9542 2.37501 15.7553V8.39258C2.3757 8.19382 2.45465 8.00332 2.59476 7.86233L8.28351 2.17508C8.70628 1.75428 9.27851 1.51804 9.87501 1.51804C10.4715 1.51804 11.0437 1.75428 11.4665 2.17508L17.1553 7.86458C17.2948 8.00502 17.3737 8.1946 17.375 8.39258V15.7553Z" fill="#ABABAB"/>
</svg>
